<mxfile host="65bd71144e">
    <diagram id="ejLCpa9NE0bKKi8KCpJC" name="Page-1">
        <mxGraphModel dx="836" dy="813" grid="1" gridSize="10" guides="1" tooltips="1" connect="1" arrows="1" fold="1" page="1" pageScale="1" pageWidth="850" pageHeight="1100" math="0" shadow="0">
            <root>
                <mxCell id="0"/>
                <mxCell id="1" parent="0"/>
                <mxCell id="4" value="&lt;font style=&quot;font-size: 26px;&quot;&gt;Martin's Aquarium Logo&lt;/font&gt;" style="shape=ext;double=1;rounded=0;whiteSpace=wrap;html=1;align=left;" parent="1" vertex="1">
                    <mxGeometry x="40" y="60" width="780" height="110" as="geometry"/>
                </mxCell>
                <mxCell id="5" value="Fish/tank care tips" style="shape=ext;double=1;rounded=0;whiteSpace=wrap;html=1;fontSize=26;" parent="1" vertex="1">
                    <mxGeometry x="60" y="810" width="270" height="50" as="geometry"/>
                </mxCell>
                <mxCell id="15" value="Fish collecting/harvesting areas" style="shape=ext;double=1;rounded=0;whiteSpace=wrap;html=1;fontSize=26;" parent="1" vertex="1">
                    <mxGeometry x="210" y="510" width="460" height="40" as="geometry"/>
                </mxCell>
                <mxCell id="16" value="Travel Tips" style="shape=ext;double=1;rounded=0;whiteSpace=wrap;html=1;fontSize=26;" parent="1" vertex="1">
                    <mxGeometry x="290" y="210" width="270" height="40" as="geometry"/>
                </mxCell>
                <mxCell id="17" value="&lt;ol&gt;&lt;li&gt;tip 1&lt;/li&gt;&lt;li&gt;tip 2&lt;/li&gt;&lt;li&gt;tip 3&lt;/li&gt;&lt;/ol&gt;" style="shape=ext;double=1;rounded=0;whiteSpace=wrap;html=1;fontSize=26;align=left;" parent="1" vertex="1">
                    <mxGeometry x="40" y="290" width="750" height="180" as="geometry"/>
                </mxCell>
                <mxCell id="19" value="&lt;font style=&quot;font-size: 17px;&quot;&gt;Harvesting Area 1 img&lt;/font&gt;" style="shape=ext;double=1;rounded=0;whiteSpace=wrap;html=1;fontSize=26;" parent="1" vertex="1">
                    <mxGeometry x="230" y="580" width="120" height="130" as="geometry"/>
                </mxCell>
                <mxCell id="22" value="&lt;ol&gt;&lt;li&gt;tip 1&lt;/li&gt;&lt;li&gt;tip 2&lt;/li&gt;&lt;li&gt;tip 3&lt;/li&gt;&lt;li&gt;tip 4&lt;/li&gt;&lt;/ol&gt;" style="shape=ext;double=1;rounded=0;whiteSpace=wrap;html=1;fontSize=26;align=left;" parent="1" vertex="1">
                    <mxGeometry x="60" y="900" width="270" height="280" as="geometry"/>
                </mxCell>
                <mxCell id="23" value="Fish" style="shape=ext;double=1;rounded=0;whiteSpace=wrap;html=1;fontSize=26;" parent="1" vertex="1">
                    <mxGeometry x="475" y="810" width="270" height="50" as="geometry"/>
                </mxCell>
                <mxCell id="25" value="&lt;font style=&quot;font-size: 17px;&quot;&gt;description&lt;/font&gt;" style="shape=ext;double=1;rounded=0;whiteSpace=wrap;html=1;fontSize=26;" parent="1" vertex="1">
                    <mxGeometry x="230" y="720" width="120" height="50" as="geometry"/>
                </mxCell>
                <mxCell id="26" value="&lt;font style=&quot;font-size: 17px;&quot;&gt;Harvesting Area 2 img&lt;/font&gt;" style="shape=ext;double=1;rounded=0;whiteSpace=wrap;html=1;fontSize=26;" parent="1" vertex="1">
                    <mxGeometry x="380" y="580" width="120" height="130" as="geometry"/>
                </mxCell>
                <mxCell id="27" value="&lt;font style=&quot;font-size: 17px;&quot;&gt;description&lt;/font&gt;" style="shape=ext;double=1;rounded=0;whiteSpace=wrap;html=1;fontSize=26;" parent="1" vertex="1">
                    <mxGeometry x="380" y="720" width="120" height="50" as="geometry"/>
                </mxCell>
                <mxCell id="28" value="&lt;font style=&quot;font-size: 17px;&quot;&gt;Harvesting Area 3 img&lt;/font&gt;" style="shape=ext;double=1;rounded=0;whiteSpace=wrap;html=1;fontSize=26;" parent="1" vertex="1">
                    <mxGeometry x="530" y="580" width="120" height="130" as="geometry"/>
                </mxCell>
                <mxCell id="29" value="&lt;font style=&quot;font-size: 17px;&quot;&gt;description&lt;/font&gt;" style="shape=ext;double=1;rounded=0;whiteSpace=wrap;html=1;fontSize=26;" parent="1" vertex="1">
                    <mxGeometry x="530" y="720" width="120" height="50" as="geometry"/>
                </mxCell>
                <mxCell id="52" value="" style="group" vertex="1" connectable="0" parent="1">
                    <mxGeometry x="385" y="900.001052631579" width="120" height="191.57894736842093" as="geometry"/>
                </mxCell>
                <mxCell id="30" value="&lt;font style=&quot;font-size: 12px;&quot;&gt;Fish img&lt;br&gt;&lt;/font&gt;" style="shape=ext;double=1;rounded=0;whiteSpace=wrap;html=1;fontSize=14;align=center;" parent="52" vertex="1">
                    <mxGeometry width="120" height="96.84210526315789" as="geometry"/>
                </mxCell>
                <mxCell id="31" value="&lt;div style=&quot;text-align: left;&quot;&gt;&lt;span style=&quot;font-size: 12px;&quot;&gt;Name:&lt;/span&gt;&lt;/div&gt;&lt;div style=&quot;text-align: left;&quot;&gt;&lt;span style=&quot;font-size: 12px;&quot;&gt;Breed:&lt;/span&gt;&lt;/div&gt;&lt;div style=&quot;text-align: left;&quot;&gt;&lt;span style=&quot;font-size: 12px;&quot;&gt;Length:&lt;/span&gt;&lt;/div&gt;&lt;div style=&quot;text-align: left;&quot;&gt;&lt;span style=&quot;font-size: 12px;&quot;&gt;Harvest Location:&lt;/span&gt;&lt;/div&gt;&lt;div style=&quot;text-align: left;&quot;&gt;&lt;span style=&quot;font-size: 12px;&quot;&gt;Diet:&lt;/span&gt;&lt;/div&gt;" style="shape=ext;double=1;rounded=0;whiteSpace=wrap;html=1;fontSize=14;align=center;" parent="52" vertex="1">
                    <mxGeometry y="96.83894736842103" width="120" height="94.74" as="geometry"/>
                </mxCell>
                <mxCell id="53" value="" style="group" vertex="1" connectable="0" parent="1">
                    <mxGeometry x="530" y="900.001052631579" width="120" height="191.57894736842093" as="geometry"/>
                </mxCell>
                <mxCell id="54" value="&lt;font style=&quot;font-size: 12px;&quot;&gt;Fish img&lt;br&gt;&lt;/font&gt;" style="shape=ext;double=1;rounded=0;whiteSpace=wrap;html=1;fontSize=14;align=center;" vertex="1" parent="53">
                    <mxGeometry width="120" height="96.84210526315789" as="geometry"/>
                </mxCell>
                <mxCell id="55" value="&lt;div style=&quot;text-align: left;&quot;&gt;&lt;span style=&quot;font-size: 12px;&quot;&gt;Name:&lt;/span&gt;&lt;/div&gt;&lt;div style=&quot;text-align: left;&quot;&gt;&lt;span style=&quot;font-size: 12px;&quot;&gt;Breed:&lt;/span&gt;&lt;/div&gt;&lt;div style=&quot;text-align: left;&quot;&gt;&lt;span style=&quot;font-size: 12px;&quot;&gt;Length:&lt;/span&gt;&lt;/div&gt;&lt;div style=&quot;text-align: left;&quot;&gt;&lt;span style=&quot;font-size: 12px;&quot;&gt;Harvest Location:&lt;/span&gt;&lt;/div&gt;&lt;div style=&quot;text-align: left;&quot;&gt;&lt;span style=&quot;font-size: 12px;&quot;&gt;Diet:&lt;/span&gt;&lt;/div&gt;" style="shape=ext;double=1;rounded=0;whiteSpace=wrap;html=1;fontSize=14;align=center;" vertex="1" parent="53">
                    <mxGeometry y="96.83894736842103" width="120" height="94.74" as="geometry"/>
                </mxCell>
                <mxCell id="56" value="" style="group" vertex="1" connectable="0" parent="1">
                    <mxGeometry x="680" y="900.001052631579" width="120" height="191.57894736842093" as="geometry"/>
                </mxCell>
                <mxCell id="57" value="&lt;font style=&quot;font-size: 12px;&quot;&gt;Fish img&lt;br&gt;&lt;/font&gt;" style="shape=ext;double=1;rounded=0;whiteSpace=wrap;html=1;fontSize=14;align=center;" vertex="1" parent="56">
                    <mxGeometry width="120" height="96.84210526315789" as="geometry"/>
                </mxCell>
                <mxCell id="58" value="&lt;div style=&quot;text-align: left;&quot;&gt;&lt;span style=&quot;font-size: 12px;&quot;&gt;Name:&lt;/span&gt;&lt;/div&gt;&lt;div style=&quot;text-align: left;&quot;&gt;&lt;span style=&quot;font-size: 12px;&quot;&gt;Breed:&lt;/span&gt;&lt;/div&gt;&lt;div style=&quot;text-align: left;&quot;&gt;&lt;span style=&quot;font-size: 12px;&quot;&gt;Length:&lt;/span&gt;&lt;/div&gt;&lt;div style=&quot;text-align: left;&quot;&gt;&lt;span style=&quot;font-size: 12px;&quot;&gt;Harvest Location:&lt;/span&gt;&lt;/div&gt;&lt;div style=&quot;text-align: left;&quot;&gt;&lt;span style=&quot;font-size: 12px;&quot;&gt;Diet:&lt;/span&gt;&lt;/div&gt;" style="shape=ext;double=1;rounded=0;whiteSpace=wrap;html=1;fontSize=14;align=center;" vertex="1" parent="56">
                    <mxGeometry y="96.83894736842103" width="120" height="94.74" as="geometry"/>
                </mxCell>
                <mxCell id="59" value="" style="group" vertex="1" connectable="0" parent="1">
                    <mxGeometry x="384" y="1110.0010526315791" width="120" height="191.57894736842093" as="geometry"/>
                </mxCell>
                <mxCell id="60" value="&lt;font style=&quot;font-size: 12px;&quot;&gt;Fish img&lt;br&gt;&lt;/font&gt;" style="shape=ext;double=1;rounded=0;whiteSpace=wrap;html=1;fontSize=14;align=center;" vertex="1" parent="59">
                    <mxGeometry width="120" height="96.84210526315789" as="geometry"/>
                </mxCell>
                <mxCell id="61" value="&lt;div style=&quot;text-align: left;&quot;&gt;&lt;span style=&quot;font-size: 12px;&quot;&gt;Name:&lt;/span&gt;&lt;/div&gt;&lt;div style=&quot;text-align: left;&quot;&gt;&lt;span style=&quot;font-size: 12px;&quot;&gt;Breed:&lt;/span&gt;&lt;/div&gt;&lt;div style=&quot;text-align: left;&quot;&gt;&lt;span style=&quot;font-size: 12px;&quot;&gt;Length:&lt;/span&gt;&lt;/div&gt;&lt;div style=&quot;text-align: left;&quot;&gt;&lt;span style=&quot;font-size: 12px;&quot;&gt;Harvest Location:&lt;/span&gt;&lt;/div&gt;&lt;div style=&quot;text-align: left;&quot;&gt;&lt;span style=&quot;font-size: 12px;&quot;&gt;Diet:&lt;/span&gt;&lt;/div&gt;" style="shape=ext;double=1;rounded=0;whiteSpace=wrap;html=1;fontSize=14;align=center;" vertex="1" parent="59">
                    <mxGeometry y="96.83894736842103" width="120" height="94.74" as="geometry"/>
                </mxCell>
                <mxCell id="62" value="" style="group" vertex="1" connectable="0" parent="1">
                    <mxGeometry x="529" y="1110.0010526315791" width="120" height="191.57894736842093" as="geometry"/>
                </mxCell>
                <mxCell id="63" value="&lt;font style=&quot;font-size: 12px;&quot;&gt;Fish img&lt;br&gt;&lt;/font&gt;" style="shape=ext;double=1;rounded=0;whiteSpace=wrap;html=1;fontSize=14;align=center;" vertex="1" parent="62">
                    <mxGeometry width="120" height="96.84210526315789" as="geometry"/>
                </mxCell>
                <mxCell id="64" value="&lt;div style=&quot;text-align: left;&quot;&gt;&lt;span style=&quot;font-size: 12px;&quot;&gt;Name:&lt;/span&gt;&lt;/div&gt;&lt;div style=&quot;text-align: left;&quot;&gt;&lt;span style=&quot;font-size: 12px;&quot;&gt;Breed:&lt;/span&gt;&lt;/div&gt;&lt;div style=&quot;text-align: left;&quot;&gt;&lt;span style=&quot;font-size: 12px;&quot;&gt;Length:&lt;/span&gt;&lt;/div&gt;&lt;div style=&quot;text-align: left;&quot;&gt;&lt;span style=&quot;font-size: 12px;&quot;&gt;Harvest Location:&lt;/span&gt;&lt;/div&gt;&lt;div style=&quot;text-align: left;&quot;&gt;&lt;span style=&quot;font-size: 12px;&quot;&gt;Diet:&lt;/span&gt;&lt;/div&gt;" style="shape=ext;double=1;rounded=0;whiteSpace=wrap;html=1;fontSize=14;align=center;" vertex="1" parent="62">
                    <mxGeometry y="96.83894736842103" width="120" height="94.74" as="geometry"/>
                </mxCell>
                <mxCell id="65" value="" style="group" vertex="1" connectable="0" parent="1">
                    <mxGeometry x="679" y="1110.0010526315791" width="120" height="191.57894736842093" as="geometry"/>
                </mxCell>
                <mxCell id="66" value="&lt;font style=&quot;font-size: 12px;&quot;&gt;Fish img&lt;br&gt;&lt;/font&gt;" style="shape=ext;double=1;rounded=0;whiteSpace=wrap;html=1;fontSize=14;align=center;" vertex="1" parent="65">
                    <mxGeometry width="120" height="96.84210526315789" as="geometry"/>
                </mxCell>
                <mxCell id="67" value="&lt;div style=&quot;text-align: left;&quot;&gt;&lt;span style=&quot;font-size: 12px;&quot;&gt;Name:&lt;/span&gt;&lt;/div&gt;&lt;div style=&quot;text-align: left;&quot;&gt;&lt;span style=&quot;font-size: 12px;&quot;&gt;Breed:&lt;/span&gt;&lt;/div&gt;&lt;div style=&quot;text-align: left;&quot;&gt;&lt;span style=&quot;font-size: 12px;&quot;&gt;Length:&lt;/span&gt;&lt;/div&gt;&lt;div style=&quot;text-align: left;&quot;&gt;&lt;span style=&quot;font-size: 12px;&quot;&gt;Harvest Location:&lt;/span&gt;&lt;/div&gt;&lt;div style=&quot;text-align: left;&quot;&gt;&lt;span style=&quot;font-size: 12px;&quot;&gt;Diet:&lt;/span&gt;&lt;/div&gt;" style="shape=ext;double=1;rounded=0;whiteSpace=wrap;html=1;fontSize=14;align=center;" vertex="1" parent="65">
                    <mxGeometry y="96.83894736842103" width="120" height="94.74" as="geometry"/>
                </mxCell>
            </root>
        </mxGraphModel>
    </diagram>
</mxfile>